<svg xmlns="http://www.w3.org/2000/svg" viewBox="3383 922.985 18.093 16.315">
  <defs>
    <style>
      .cls-1 {
        opacity: 0.2;
      }

      .cls-2 {
        fill: #fff;
      }
    </style>
  </defs>
  <g id="Group_468" data-name="Group 468" class="cls-1" transform="translate(3383 922.985)">
    <g id="Group_467" data-name="Group 467" transform="translate(0 0)">
      <path id="Path_19867" data-name="Path 19867" class="cls-2" d="M17.184,14.854H14.5L17.856,11.5a.811.811,0,0,0,0-1.146L7.782.237a.811.811,0,0,0-1.146,0L.237,6.6a.811.811,0,0,0,0,1.146l7.071,7.071H.79a.751.751,0,0,0,0,1.5H17.184a.75.75,0,0,0,.751-.751.718.718,0,0,0-.751-.711ZM14.775,9.56,9.639,8.454,8.533,3.318ZM1.975,7.19,6.637,2.528,8.1,9.363a.877.877,0,0,0,.672.672l6.795,1.422-3.4,3.4H9.639Zm0,0"/>
    </g>
  </g>
</svg>
