<svg xmlns="http://www.w3.org/2000/svg" viewBox="3380.5 919.5 23 23">
  <defs>
    <style>
      .cls-1 {
        fill: #434343;
      }
    </style>
  </defs>
  <g id="Group_105" data-name="Group 105" transform="translate(3380.5 919.5)">
    <path id="Path_5881" data-name="Path 5881" class="cls-1" d="M48.1,46.355c0,1.259.4,1.931,1.175,1.931a1.491,1.491,0,0,0,1.364-1.091V44.089a2.214,2.214,0,0,0-.9-.189C48.667,43.9,48.1,44.739,48.1,46.355Z" transform="translate(-38.006 -34.687)"/>
    <path id="Path_5882" data-name="Path 5882" class="cls-1" d="M11.5,0A11.5,11.5,0,1,0,23,11.5,11.491,11.491,0,0,0,11.5,0Zm3.064,14.459a1.579,1.579,0,0,1-1.616-1.3,1.928,1.928,0,0,1-1.8,1.28c-1.343,0-2.182-1.112-2.182-2.77,0-2.182,1.154-3.295,2.749-3.295a3.89,3.89,0,0,1,1.973.5V12.13c0,1.091.315,1.427.86,1.427.86,0,1.343-.86,1.343-2.833,0-2.434-1.427-4.029-4.155-4.029-2.854.021-4.6,2.078-4.6,4.869s1.637,4.743,4.575,4.743a7.311,7.311,0,0,0,2.413-.42l.315.9a7.582,7.582,0,0,1-2.749.483A5.4,5.4,0,0,1,5.96,11.563a5.549,5.549,0,0,1,5.729-5.792c3.5,0,5.33,2.329,5.33,4.953C17.04,12.759,16.264,14.459,14.564,14.459Z"/>
  </g>
</svg>
