<svg xmlns="http://www.w3.org/2000/svg" viewBox="3380.5 946.5 23 23">
  <defs>
    <style>
      .cls-1 {
        fill: #434343;
      }
    </style>
  </defs>
  <g id="Group_104" data-name="Group 104" transform="translate(3380.5 946.5)">
    <path id="Path_5879" data-name="Path 5879" class="cls-1" d="M11.5,0A11.5,11.5,0,1,0,23,11.5,11.491,11.491,0,0,0,11.5,0Zm.546,17.418A6.486,6.486,0,0,1,9,16.642L5.519,17.754,6.652,14.4a6.423,6.423,0,0,1-.881-3.274,6.275,6.275,0,1,1,6.275,6.3Z"/>
    <path id="Path_5880" data-name="Path 5880" class="cls-1" d="M37.725,28.1a5.232,5.232,0,0,0-4.239,8.289l-.651,1.931,2.015-.651a5.155,5.155,0,0,0,2.875.86,5.215,5.215,0,1,0,0-10.43Zm3.127,7.618a1.537,1.537,0,0,1-1.112.714c-.294.021-.294.231-1.91-.483a6.664,6.664,0,0,1-2.644-2.518,2.975,2.975,0,0,1-.588-1.679,1.817,1.817,0,0,1,.609-1.322.655.655,0,0,1,.441-.189c.1,0,.21.021.315.021.084,0,.231-.042.357.273.126.336.42,1.133.441,1.217a.255.255,0,0,1,0,.273,1.054,1.054,0,0,1-.168.252,3.228,3.228,0,0,1-.252.273c-.084.084-.168.168-.084.315A5.079,5.079,0,0,0,37.1,34a4.413,4.413,0,0,0,1.259.839c.168.084.252.084.357-.021a7.852,7.852,0,0,0,.525-.609c.1-.147.21-.126.357-.063s.923.483,1.07.567.273.126.294.189A1.4,1.4,0,0,1,40.852,35.718Z" transform="translate(-25.68 -22.203)"/>
  </g>
</svg>
