<svg xmlns="http://www.w3.org/2000/svg" viewBox="3383 953.259 18.093 17.979">
  <defs>
    <style>
      .cls-1 {
        opacity: 0.2;
      }

      .cls-2 {
        fill: #fff;
      }
    </style>
  </defs>
  <g id="Group_466" data-name="Group 466" class="cls-1" transform="translate(3383 953.284)">
    <g id="Group_466-2" data-name="Group 466" transform="translate(0 -0.025)">
      <path id="Path_19865" data-name="Path 19865" class="cls-2" d="M8.608-.015A9.026,9.026,0,0,0,0,8.926a8.771,8.771,0,0,0,1,4.033L.042,17.533a.357.357,0,0,0,.416.416l4.574-1.081a8.682,8.682,0,0,0,3.867.915,9.032,9.032,0,0,0,9.19-8.649A8.979,8.979,0,0,0,8.608-.015Zm5.447,13.847a7.012,7.012,0,0,1-4.99,2.038,6.932,6.932,0,0,1-3.16-.748l-.624-.333-2.786.665.582-2.828L2.744,12A6.849,6.849,0,0,1,4.033,3.894a7.19,7.19,0,0,1,4.99-2.038,7.028,7.028,0,0,1,7.069,6.986,6.711,6.711,0,0,1-2.038,4.99Zm0,0" transform="translate(0 0.025)"/>
    </g>
    <path id="Path_19866" data-name="Path 19866" class="cls-2" d="M19.716,17.33l-1.746-.5A.669.669,0,0,0,17.3,17l-.416.416a.626.626,0,0,1-.707.125,9.686,9.686,0,0,1-3.036-2.62.63.63,0,0,1,.042-.707l.374-.457a.64.64,0,0,0,.083-.665l-.707-1.622a.711.711,0,0,0-1.04-.249,2.772,2.772,0,0,0-1.123,1.7c-.125,1.206.416,2.744,2.412,4.574,2.287,2.121,4.158,2.412,5.323,2.121a3.3,3.3,0,0,0,1.58-1.331.658.658,0,0,0-.374-.956Zm0,0" transform="translate(-6.285 -6.492)"/>
  </g>
</svg>
