<svg xmlns="http://www.w3.org/2000/svg" viewBox="3734.402 888.1 23.4 23.4">
  <defs>
    <style>
      .cls-1 {
        fill: #434343;
      }
    </style>
  </defs>
  <path id="Path_5878" data-name="Path 5878" class="cls-1" d="M317.1,0a11.7,11.7,0,1,0,11.7,11.7A11.691,11.691,0,0,0,317.1,0Zm.918,14.881a3.767,3.767,0,0,1-1.879-.9c-.363,1.943-.811,3.8-2.156,4.761-.406-2.925.6-5.124,1.089-7.473-.811-1.366.107-4.1,1.793-3.416,2.092.833-1.815,5.039.811,5.572,2.733.555,3.864-4.761,2.156-6.469-2.455-2.477-7.152-.043-6.576,3.5.149.875,1.046,1.132.363,2.349-1.58-.342-2.028-1.58-1.986-3.245A5.274,5.274,0,0,1,316.4,4.718c2.968-.32,5.743,1.089,6.106,3.864C322.95,11.721,321.178,15.116,318.018,14.881Z" transform="translate(3429.002 888.1)"/>
</svg>
