<svg xmlns="http://www.w3.org/2000/svg" viewBox="3766 888 23.5 23.5">
  <defs>
    <style>
      .cls-1 {
        fill: #434343;
      }
    </style>
  </defs>
  <g id="Group_106" data-name="Group 106" transform="translate(3766 888)">
    <path id="Path_5883" data-name="Path 5883" class="cls-1" d="M126.686,124.6a2.086,2.086,0,1,0,2.086,2.086A2.092,2.092,0,0,0,126.686,124.6Z" transform="translate(-114.936 -114.936)"/>
    <path id="Path_5884" data-name="Path 5884" class="cls-1" d="M93.809,86.1H88.535A2.439,2.439,0,0,0,86.1,88.535v5.274a2.439,2.439,0,0,0,2.435,2.435h5.274a2.439,2.439,0,0,0,2.435-2.435V88.535A2.439,2.439,0,0,0,93.809,86.1Zm-2.637,8.206a3.133,3.133,0,1,1,3.133-3.133A3.135,3.135,0,0,1,91.172,94.306Zm3.265-5.693a.752.752,0,1,1,.752-.752A.748.748,0,0,1,94.437,88.613Z" transform="translate(-79.422 -79.422)"/>
    <path id="Path_5885" data-name="Path 5885" class="cls-1" d="M11.75,0A11.75,11.75,0,1,0,23.5,11.75,11.747,11.747,0,0,0,11.75,0Zm6.119,14.387a3.487,3.487,0,0,1-3.482,3.482H9.113a3.487,3.487,0,0,1-3.482-3.482V9.113A3.487,3.487,0,0,1,9.113,5.631h5.274a3.487,3.487,0,0,1,3.482,3.482Z"/>
  </g>
</svg>
