<svg xmlns="http://www.w3.org/2000/svg" viewBox="3701.992 888.1 23.4 23.4">
  <defs>
    <style>
      .cls-1 {
        fill: #434343;
      }
    </style>
  </defs>
  <g id="Group_102" data-name="Group 102" transform="translate(3701.992 888.1)">
    <path id="Path_5876" data-name="Path 5876" class="cls-1" d="M201.8,46.474l4.014-2.626L201.8,41.2Z" transform="translate(-191.509 -32.404)"/>
    <path id="Path_5877" data-name="Path 5877" class="cls-1" d="M165.3,0A11.7,11.7,0,1,0,177,11.7,11.691,11.691,0,0,0,165.3,0Zm7,14.518a2.1,2.1,0,0,1-2.092,2.092h-9.821a2.1,2.1,0,0,1-2.092-2.092V8.9a2.1,2.1,0,0,1,2.092-2.092h9.821A2.1,2.1,0,0,1,172.3,8.9Z" transform="translate(-153.6)"/>
  </g>
</svg>
